<mxfile host="app.diagrams.net" modified="2024-05-27T14:47:37.468Z" agent="Mozilla/5.0 (Windows NT 10.0; Win64; x64) AppleWebKit/537.36 (KHTML, like Gecko) Chrome/125.0.0.0 Safari/537.36" etag="XzXAkZXQDdn0V24DfTwP" version="24.4.9" type="device" pages="4">
  <diagram name="Página-1" id="JmoukTkrc4SAo6Al5TBl">
    <mxGraphModel dx="1434" dy="772" grid="1" gridSize="10" guides="1" tooltips="1" connect="1" arrows="1" fold="1" page="1" pageScale="1" pageWidth="827" pageHeight="1169" math="0" shadow="0">
      <root>
        <mxCell id="0" />
        <mxCell id="1" parent="0" />
        <mxCell id="-T4g21r6BM9YxBo1QIQQ-9" value="" style="edgeStyle=orthogonalEdgeStyle;rounded=0;orthogonalLoop=1;jettySize=auto;html=1;" edge="1" parent="1" source="-T4g21r6BM9YxBo1QIQQ-1" target="-T4g21r6BM9YxBo1QIQQ-4">
          <mxGeometry relative="1" as="geometry" />
        </mxCell>
        <mxCell id="-T4g21r6BM9YxBo1QIQQ-1" value="Inicio" style="ellipse;whiteSpace=wrap;html=1;" vertex="1" parent="1">
          <mxGeometry x="320" y="40" width="120" height="80" as="geometry" />
        </mxCell>
        <mxCell id="-T4g21r6BM9YxBo1QIQQ-105" style="edgeStyle=orthogonalEdgeStyle;rounded=0;orthogonalLoop=1;jettySize=auto;html=1;exitX=0.5;exitY=1;exitDx=0;exitDy=0;" edge="1" parent="1" source="-T4g21r6BM9YxBo1QIQQ-4">
          <mxGeometry relative="1" as="geometry">
            <mxPoint x="380" y="260" as="targetPoint" />
          </mxGeometry>
        </mxCell>
        <mxCell id="-T4g21r6BM9YxBo1QIQQ-4" value="Listar Cliente" style="rounded=0;whiteSpace=wrap;html=1;" vertex="1" parent="1">
          <mxGeometry x="320" y="160" width="120" height="60" as="geometry" />
        </mxCell>
        <mxCell id="-T4g21r6BM9YxBo1QIQQ-15" value="Não" style="edgeStyle=orthogonalEdgeStyle;rounded=0;orthogonalLoop=1;jettySize=auto;html=1;" edge="1" parent="1" source="-T4g21r6BM9YxBo1QIQQ-13">
          <mxGeometry relative="1" as="geometry">
            <mxPoint x="380" y="410" as="targetPoint" />
          </mxGeometry>
        </mxCell>
        <mxCell id="-T4g21r6BM9YxBo1QIQQ-13" value="Cliente cadastrado" style="rhombus;whiteSpace=wrap;html=1;" vertex="1" parent="1">
          <mxGeometry x="320" y="270" width="115" height="100" as="geometry" />
        </mxCell>
        <mxCell id="-T4g21r6BM9YxBo1QIQQ-17" style="edgeStyle=orthogonalEdgeStyle;rounded=0;orthogonalLoop=1;jettySize=auto;html=1;" edge="1" parent="1" source="-T4g21r6BM9YxBo1QIQQ-16">
          <mxGeometry relative="1" as="geometry">
            <mxPoint x="385" y="500" as="targetPoint" />
          </mxGeometry>
        </mxCell>
        <mxCell id="-T4g21r6BM9YxBo1QIQQ-16" value="Cadastrar Cliente" style="rounded=0;whiteSpace=wrap;html=1;" vertex="1" parent="1">
          <mxGeometry x="325" y="410" width="120" height="60" as="geometry" />
        </mxCell>
        <mxCell id="-T4g21r6BM9YxBo1QIQQ-22" value="Não" style="edgeStyle=orthogonalEdgeStyle;rounded=0;orthogonalLoop=1;jettySize=auto;html=1;" edge="1" parent="1" source="-T4g21r6BM9YxBo1QIQQ-18">
          <mxGeometry relative="1" as="geometry">
            <mxPoint x="500" y="540" as="targetPoint" />
          </mxGeometry>
        </mxCell>
        <mxCell id="-T4g21r6BM9YxBo1QIQQ-18" value="Dados validos" style="rhombus;whiteSpace=wrap;html=1;" vertex="1" parent="1">
          <mxGeometry x="330" y="500" width="120" height="80" as="geometry" />
        </mxCell>
        <mxCell id="-T4g21r6BM9YxBo1QIQQ-23" value="Mostrar Erro" style="rounded=0;whiteSpace=wrap;html=1;" vertex="1" parent="1">
          <mxGeometry x="500" y="510" width="120" height="60" as="geometry" />
        </mxCell>
        <mxCell id="-T4g21r6BM9YxBo1QIQQ-31" style="edgeStyle=orthogonalEdgeStyle;rounded=0;orthogonalLoop=1;jettySize=auto;html=1;exitX=0.5;exitY=0;exitDx=0;exitDy=0;entryX=0.992;entryY=0.15;entryDx=0;entryDy=0;entryPerimeter=0;" edge="1" parent="1" source="-T4g21r6BM9YxBo1QIQQ-23" target="-T4g21r6BM9YxBo1QIQQ-16">
          <mxGeometry relative="1" as="geometry" />
        </mxCell>
        <mxCell id="-T4g21r6BM9YxBo1QIQQ-38" style="edgeStyle=orthogonalEdgeStyle;rounded=0;orthogonalLoop=1;jettySize=auto;html=1;exitX=0.5;exitY=1;exitDx=0;exitDy=0;entryX=0.464;entryY=0.167;entryDx=0;entryDy=0;entryPerimeter=0;" edge="1" parent="1" source="-T4g21r6BM9YxBo1QIQQ-18">
          <mxGeometry relative="1" as="geometry">
            <mxPoint x="389.96000000000004" y="630.02" as="targetPoint" />
          </mxGeometry>
        </mxCell>
        <mxCell id="-T4g21r6BM9YxBo1QIQQ-39" value="Sim" style="edgeLabel;html=1;align=center;verticalAlign=middle;resizable=0;points=[];" vertex="1" connectable="0" parent="-T4g21r6BM9YxBo1QIQQ-38">
          <mxGeometry x="0.2073" relative="1" as="geometry">
            <mxPoint as="offset" />
          </mxGeometry>
        </mxCell>
        <mxCell id="-T4g21r6BM9YxBo1QIQQ-71" style="edgeStyle=orthogonalEdgeStyle;rounded=0;orthogonalLoop=1;jettySize=auto;html=1;exitX=0.5;exitY=1;exitDx=0;exitDy=0;entryX=1;entryY=0.5;entryDx=0;entryDy=0;" edge="1" parent="1" source="-T4g21r6BM9YxBo1QIQQ-47" target="-T4g21r6BM9YxBo1QIQQ-69">
          <mxGeometry relative="1" as="geometry" />
        </mxCell>
        <mxCell id="-T4g21r6BM9YxBo1QIQQ-47" value="Cadastro Concluido" style="rounded=0;whiteSpace=wrap;html=1;" vertex="1" parent="1">
          <mxGeometry x="330" y="630" width="120" height="60" as="geometry" />
        </mxCell>
        <mxCell id="-T4g21r6BM9YxBo1QIQQ-108" style="edgeStyle=orthogonalEdgeStyle;rounded=0;orthogonalLoop=1;jettySize=auto;html=1;" edge="1" parent="1" source="-T4g21r6BM9YxBo1QIQQ-51" target="-T4g21r6BM9YxBo1QIQQ-53">
          <mxGeometry relative="1" as="geometry" />
        </mxCell>
        <mxCell id="-T4g21r6BM9YxBo1QIQQ-51" value="Buscar Cliente" style="rounded=0;whiteSpace=wrap;html=1;" vertex="1" parent="1">
          <mxGeometry x="160" y="310" width="120" height="60" as="geometry" />
        </mxCell>
        <mxCell id="-T4g21r6BM9YxBo1QIQQ-110" style="edgeStyle=orthogonalEdgeStyle;rounded=0;orthogonalLoop=1;jettySize=auto;html=1;exitX=0.5;exitY=1;exitDx=0;exitDy=0;entryX=0.5;entryY=0;entryDx=0;entryDy=0;" edge="1" parent="1" source="-T4g21r6BM9YxBo1QIQQ-53" target="-T4g21r6BM9YxBo1QIQQ-61">
          <mxGeometry relative="1" as="geometry" />
        </mxCell>
        <mxCell id="-T4g21r6BM9YxBo1QIQQ-122" style="edgeStyle=orthogonalEdgeStyle;rounded=0;orthogonalLoop=1;jettySize=auto;html=1;entryX=0;entryY=0.5;entryDx=0;entryDy=0;" edge="1" parent="1" source="-T4g21r6BM9YxBo1QIQQ-53" target="-T4g21r6BM9YxBo1QIQQ-4">
          <mxGeometry relative="1" as="geometry" />
        </mxCell>
        <mxCell id="-T4g21r6BM9YxBo1QIQQ-123" style="edgeStyle=orthogonalEdgeStyle;rounded=0;orthogonalLoop=1;jettySize=auto;html=1;exitX=0;exitY=0.5;exitDx=0;exitDy=0;entryX=0;entryY=0.5;entryDx=0;entryDy=0;" edge="1" parent="1" source="-T4g21r6BM9YxBo1QIQQ-53" target="-T4g21r6BM9YxBo1QIQQ-1">
          <mxGeometry relative="1" as="geometry" />
        </mxCell>
        <mxCell id="-T4g21r6BM9YxBo1QIQQ-124" value="Não" style="edgeLabel;html=1;align=center;verticalAlign=middle;resizable=0;points=[];" vertex="1" connectable="0" parent="-T4g21r6BM9YxBo1QIQQ-123">
          <mxGeometry x="-0.2479" y="2" relative="1" as="geometry">
            <mxPoint as="offset" />
          </mxGeometry>
        </mxCell>
        <mxCell id="-T4g21r6BM9YxBo1QIQQ-53" value="Cliente Encontrado" style="rhombus;whiteSpace=wrap;html=1;" vertex="1" parent="1">
          <mxGeometry x="170" y="430" width="100" height="90" as="geometry" />
        </mxCell>
        <mxCell id="-T4g21r6BM9YxBo1QIQQ-111" style="edgeStyle=orthogonalEdgeStyle;rounded=0;orthogonalLoop=1;jettySize=auto;html=1;" edge="1" parent="1" source="-T4g21r6BM9YxBo1QIQQ-61" target="-T4g21r6BM9YxBo1QIQQ-64">
          <mxGeometry relative="1" as="geometry" />
        </mxCell>
        <mxCell id="-T4g21r6BM9YxBo1QIQQ-112" value="Não" style="edgeLabel;html=1;align=center;verticalAlign=middle;resizable=0;points=[];" vertex="1" connectable="0" parent="-T4g21r6BM9YxBo1QIQQ-111">
          <mxGeometry x="-0.04" y="2" relative="1" as="geometry">
            <mxPoint as="offset" />
          </mxGeometry>
        </mxCell>
        <mxCell id="-T4g21r6BM9YxBo1QIQQ-61" value="Excluir Cliente" style="rhombus;whiteSpace=wrap;html=1;" vertex="1" parent="1">
          <mxGeometry x="170" y="550" width="100" height="90" as="geometry" />
        </mxCell>
        <mxCell id="-T4g21r6BM9YxBo1QIQQ-73" style="edgeStyle=orthogonalEdgeStyle;rounded=0;orthogonalLoop=1;jettySize=auto;html=1;exitX=0.5;exitY=1;exitDx=0;exitDy=0;entryX=0;entryY=0.5;entryDx=0;entryDy=0;" edge="1" parent="1" source="-T4g21r6BM9YxBo1QIQQ-64" target="-T4g21r6BM9YxBo1QIQQ-69">
          <mxGeometry relative="1" as="geometry" />
        </mxCell>
        <mxCell id="-T4g21r6BM9YxBo1QIQQ-74" value="Não" style="edgeLabel;html=1;align=center;verticalAlign=middle;resizable=0;points=[];" vertex="1" connectable="0" parent="-T4g21r6BM9YxBo1QIQQ-73">
          <mxGeometry x="-0.48" y="1" relative="1" as="geometry">
            <mxPoint as="offset" />
          </mxGeometry>
        </mxCell>
        <mxCell id="-T4g21r6BM9YxBo1QIQQ-114" style="edgeStyle=orthogonalEdgeStyle;rounded=0;orthogonalLoop=1;jettySize=auto;html=1;exitX=0;exitY=0.5;exitDx=0;exitDy=0;" edge="1" parent="1" source="-T4g21r6BM9YxBo1QIQQ-64">
          <mxGeometry relative="1" as="geometry">
            <mxPoint x="130" y="730" as="targetPoint" />
          </mxGeometry>
        </mxCell>
        <mxCell id="-T4g21r6BM9YxBo1QIQQ-64" value="Atualizar Cliente" style="rhombus;whiteSpace=wrap;html=1;" vertex="1" parent="1">
          <mxGeometry x="170" y="690" width="100" height="80" as="geometry" />
        </mxCell>
        <mxCell id="-T4g21r6BM9YxBo1QIQQ-69" value="Fim" style="ellipse;whiteSpace=wrap;html=1;" vertex="1" parent="1">
          <mxGeometry x="250" y="760" width="120" height="80" as="geometry" />
        </mxCell>
        <mxCell id="-T4g21r6BM9YxBo1QIQQ-120" style="edgeStyle=orthogonalEdgeStyle;rounded=0;orthogonalLoop=1;jettySize=auto;html=1;exitX=0.5;exitY=1;exitDx=0;exitDy=0;entryX=0.5;entryY=1;entryDx=0;entryDy=0;" edge="1" parent="1" source="-T4g21r6BM9YxBo1QIQQ-87" target="-T4g21r6BM9YxBo1QIQQ-69">
          <mxGeometry relative="1" as="geometry" />
        </mxCell>
        <mxCell id="-T4g21r6BM9YxBo1QIQQ-87" value="Atualização Concluida" style="rounded=0;whiteSpace=wrap;html=1;" vertex="1" parent="1">
          <mxGeometry x="25" y="820" width="120" height="60" as="geometry" />
        </mxCell>
        <mxCell id="-T4g21r6BM9YxBo1QIQQ-117" style="edgeStyle=orthogonalEdgeStyle;rounded=0;orthogonalLoop=1;jettySize=auto;html=1;exitX=0.5;exitY=1;exitDx=0;exitDy=0;" edge="1" parent="1" source="-T4g21r6BM9YxBo1QIQQ-115">
          <mxGeometry relative="1" as="geometry">
            <mxPoint x="85" y="820" as="targetPoint" />
          </mxGeometry>
        </mxCell>
        <mxCell id="-T4g21r6BM9YxBo1QIQQ-119" value="Sim" style="edgeLabel;html=1;align=center;verticalAlign=middle;resizable=0;points=[];" vertex="1" connectable="0" parent="-T4g21r6BM9YxBo1QIQQ-117">
          <mxGeometry x="-0.0892" y="-3" relative="1" as="geometry">
            <mxPoint as="offset" />
          </mxGeometry>
        </mxCell>
        <mxCell id="-T4g21r6BM9YxBo1QIQQ-115" value="Dados Validos" style="rhombus;whiteSpace=wrap;html=1;" vertex="1" parent="1">
          <mxGeometry x="40" y="690" width="90" height="80" as="geometry" />
        </mxCell>
      </root>
    </mxGraphModel>
  </diagram>
  <diagram id="FF-3B9WEqwIqzffylGSN" name="Página-2">
    <mxGraphModel dx="1434" dy="772" grid="1" gridSize="10" guides="1" tooltips="1" connect="1" arrows="1" fold="1" page="1" pageScale="1" pageWidth="827" pageHeight="1169" math="0" shadow="0">
      <root>
        <mxCell id="0" />
        <mxCell id="1" parent="0" />
        <mxCell id="cfP5T28f7ZFQE_xr4H6n-1" value="" style="edgeStyle=orthogonalEdgeStyle;rounded=0;orthogonalLoop=1;jettySize=auto;html=1;" edge="1" parent="1" source="cfP5T28f7ZFQE_xr4H6n-2" target="cfP5T28f7ZFQE_xr4H6n-4">
          <mxGeometry relative="1" as="geometry" />
        </mxCell>
        <mxCell id="cfP5T28f7ZFQE_xr4H6n-2" value="Inicio" style="ellipse;whiteSpace=wrap;html=1;" vertex="1" parent="1">
          <mxGeometry x="320" y="40" width="120" height="80" as="geometry" />
        </mxCell>
        <mxCell id="cfP5T28f7ZFQE_xr4H6n-3" style="edgeStyle=orthogonalEdgeStyle;rounded=0;orthogonalLoop=1;jettySize=auto;html=1;exitX=0.5;exitY=1;exitDx=0;exitDy=0;" edge="1" parent="1" source="cfP5T28f7ZFQE_xr4H6n-4">
          <mxGeometry relative="1" as="geometry">
            <mxPoint x="380" y="260" as="targetPoint" />
          </mxGeometry>
        </mxCell>
        <mxCell id="cfP5T28f7ZFQE_xr4H6n-4" value="Listar Fornecedor" style="rounded=0;whiteSpace=wrap;html=1;" vertex="1" parent="1">
          <mxGeometry x="320" y="160" width="120" height="60" as="geometry" />
        </mxCell>
        <mxCell id="cfP5T28f7ZFQE_xr4H6n-5" value="Não" style="edgeStyle=orthogonalEdgeStyle;rounded=0;orthogonalLoop=1;jettySize=auto;html=1;" edge="1" parent="1" source="cfP5T28f7ZFQE_xr4H6n-6">
          <mxGeometry relative="1" as="geometry">
            <mxPoint x="380" y="410" as="targetPoint" />
          </mxGeometry>
        </mxCell>
        <mxCell id="cfP5T28f7ZFQE_xr4H6n-6" value="Fornecedor Cadastrado" style="rhombus;whiteSpace=wrap;html=1;" vertex="1" parent="1">
          <mxGeometry x="320" y="270" width="115" height="100" as="geometry" />
        </mxCell>
        <mxCell id="cfP5T28f7ZFQE_xr4H6n-7" style="edgeStyle=orthogonalEdgeStyle;rounded=0;orthogonalLoop=1;jettySize=auto;html=1;" edge="1" parent="1" source="cfP5T28f7ZFQE_xr4H6n-8">
          <mxGeometry relative="1" as="geometry">
            <mxPoint x="385" y="500" as="targetPoint" />
          </mxGeometry>
        </mxCell>
        <mxCell id="cfP5T28f7ZFQE_xr4H6n-8" value="Cadastrar Fornecedor" style="rounded=0;whiteSpace=wrap;html=1;" vertex="1" parent="1">
          <mxGeometry x="325" y="410" width="120" height="60" as="geometry" />
        </mxCell>
        <mxCell id="cfP5T28f7ZFQE_xr4H6n-9" value="Não" style="edgeStyle=orthogonalEdgeStyle;rounded=0;orthogonalLoop=1;jettySize=auto;html=1;" edge="1" parent="1" source="cfP5T28f7ZFQE_xr4H6n-10">
          <mxGeometry relative="1" as="geometry">
            <mxPoint x="500" y="540" as="targetPoint" />
          </mxGeometry>
        </mxCell>
        <mxCell id="cfP5T28f7ZFQE_xr4H6n-10" value="Dados validos" style="rhombus;whiteSpace=wrap;html=1;" vertex="1" parent="1">
          <mxGeometry x="330" y="500" width="120" height="80" as="geometry" />
        </mxCell>
        <mxCell id="cfP5T28f7ZFQE_xr4H6n-11" value="Mostrar Erro" style="rounded=0;whiteSpace=wrap;html=1;" vertex="1" parent="1">
          <mxGeometry x="500" y="510" width="120" height="60" as="geometry" />
        </mxCell>
        <mxCell id="cfP5T28f7ZFQE_xr4H6n-12" style="edgeStyle=orthogonalEdgeStyle;rounded=0;orthogonalLoop=1;jettySize=auto;html=1;exitX=0.5;exitY=0;exitDx=0;exitDy=0;entryX=0.992;entryY=0.15;entryDx=0;entryDy=0;entryPerimeter=0;" edge="1" parent="1" source="cfP5T28f7ZFQE_xr4H6n-11" target="cfP5T28f7ZFQE_xr4H6n-8">
          <mxGeometry relative="1" as="geometry" />
        </mxCell>
        <mxCell id="cfP5T28f7ZFQE_xr4H6n-13" style="edgeStyle=orthogonalEdgeStyle;rounded=0;orthogonalLoop=1;jettySize=auto;html=1;exitX=0.5;exitY=1;exitDx=0;exitDy=0;entryX=0.464;entryY=0.167;entryDx=0;entryDy=0;entryPerimeter=0;" edge="1" parent="1" source="cfP5T28f7ZFQE_xr4H6n-10">
          <mxGeometry relative="1" as="geometry">
            <mxPoint x="389.96000000000004" y="630.02" as="targetPoint" />
          </mxGeometry>
        </mxCell>
        <mxCell id="cfP5T28f7ZFQE_xr4H6n-14" value="Sim" style="edgeLabel;html=1;align=center;verticalAlign=middle;resizable=0;points=[];" vertex="1" connectable="0" parent="cfP5T28f7ZFQE_xr4H6n-13">
          <mxGeometry x="0.2073" relative="1" as="geometry">
            <mxPoint as="offset" />
          </mxGeometry>
        </mxCell>
        <mxCell id="cfP5T28f7ZFQE_xr4H6n-15" style="edgeStyle=orthogonalEdgeStyle;rounded=0;orthogonalLoop=1;jettySize=auto;html=1;exitX=0.5;exitY=1;exitDx=0;exitDy=0;entryX=1;entryY=0.5;entryDx=0;entryDy=0;" edge="1" parent="1" source="cfP5T28f7ZFQE_xr4H6n-16" target="cfP5T28f7ZFQE_xr4H6n-31">
          <mxGeometry relative="1" as="geometry" />
        </mxCell>
        <mxCell id="cfP5T28f7ZFQE_xr4H6n-16" value="Cadastro Concluido" style="rounded=0;whiteSpace=wrap;html=1;" vertex="1" parent="1">
          <mxGeometry x="330" y="630" width="120" height="60" as="geometry" />
        </mxCell>
        <mxCell id="cfP5T28f7ZFQE_xr4H6n-17" style="edgeStyle=orthogonalEdgeStyle;rounded=0;orthogonalLoop=1;jettySize=auto;html=1;" edge="1" parent="1" source="cfP5T28f7ZFQE_xr4H6n-18" target="cfP5T28f7ZFQE_xr4H6n-23">
          <mxGeometry relative="1" as="geometry" />
        </mxCell>
        <mxCell id="cfP5T28f7ZFQE_xr4H6n-18" value="Buscar Fornecedor" style="rounded=0;whiteSpace=wrap;html=1;" vertex="1" parent="1">
          <mxGeometry x="160" y="310" width="120" height="60" as="geometry" />
        </mxCell>
        <mxCell id="cfP5T28f7ZFQE_xr4H6n-19" style="edgeStyle=orthogonalEdgeStyle;rounded=0;orthogonalLoop=1;jettySize=auto;html=1;exitX=0.5;exitY=1;exitDx=0;exitDy=0;entryX=0.5;entryY=0;entryDx=0;entryDy=0;" edge="1" parent="1" source="cfP5T28f7ZFQE_xr4H6n-23" target="cfP5T28f7ZFQE_xr4H6n-26">
          <mxGeometry relative="1" as="geometry" />
        </mxCell>
        <mxCell id="cfP5T28f7ZFQE_xr4H6n-20" style="edgeStyle=orthogonalEdgeStyle;rounded=0;orthogonalLoop=1;jettySize=auto;html=1;entryX=0;entryY=0.5;entryDx=0;entryDy=0;" edge="1" parent="1" source="cfP5T28f7ZFQE_xr4H6n-23" target="cfP5T28f7ZFQE_xr4H6n-4">
          <mxGeometry relative="1" as="geometry" />
        </mxCell>
        <mxCell id="cfP5T28f7ZFQE_xr4H6n-21" style="edgeStyle=orthogonalEdgeStyle;rounded=0;orthogonalLoop=1;jettySize=auto;html=1;exitX=0;exitY=0.5;exitDx=0;exitDy=0;entryX=0;entryY=0.5;entryDx=0;entryDy=0;" edge="1" parent="1" source="cfP5T28f7ZFQE_xr4H6n-23" target="cfP5T28f7ZFQE_xr4H6n-2">
          <mxGeometry relative="1" as="geometry" />
        </mxCell>
        <mxCell id="cfP5T28f7ZFQE_xr4H6n-22" value="Não" style="edgeLabel;html=1;align=center;verticalAlign=middle;resizable=0;points=[];" vertex="1" connectable="0" parent="cfP5T28f7ZFQE_xr4H6n-21">
          <mxGeometry x="-0.2479" y="2" relative="1" as="geometry">
            <mxPoint as="offset" />
          </mxGeometry>
        </mxCell>
        <mxCell id="cfP5T28f7ZFQE_xr4H6n-23" value="Fornecedor Encontrado" style="rhombus;whiteSpace=wrap;html=1;" vertex="1" parent="1">
          <mxGeometry x="170" y="430" width="100" height="90" as="geometry" />
        </mxCell>
        <mxCell id="cfP5T28f7ZFQE_xr4H6n-24" style="edgeStyle=orthogonalEdgeStyle;rounded=0;orthogonalLoop=1;jettySize=auto;html=1;" edge="1" parent="1" source="cfP5T28f7ZFQE_xr4H6n-26" target="cfP5T28f7ZFQE_xr4H6n-30">
          <mxGeometry relative="1" as="geometry" />
        </mxCell>
        <mxCell id="cfP5T28f7ZFQE_xr4H6n-25" value="Não" style="edgeLabel;html=1;align=center;verticalAlign=middle;resizable=0;points=[];" vertex="1" connectable="0" parent="cfP5T28f7ZFQE_xr4H6n-24">
          <mxGeometry x="-0.04" y="2" relative="1" as="geometry">
            <mxPoint as="offset" />
          </mxGeometry>
        </mxCell>
        <mxCell id="cfP5T28f7ZFQE_xr4H6n-26" value="Excluir Fornecedor" style="rhombus;whiteSpace=wrap;html=1;" vertex="1" parent="1">
          <mxGeometry x="170" y="550" width="100" height="90" as="geometry" />
        </mxCell>
        <mxCell id="cfP5T28f7ZFQE_xr4H6n-27" style="edgeStyle=orthogonalEdgeStyle;rounded=0;orthogonalLoop=1;jettySize=auto;html=1;exitX=0.5;exitY=1;exitDx=0;exitDy=0;entryX=0;entryY=0.5;entryDx=0;entryDy=0;" edge="1" parent="1" source="cfP5T28f7ZFQE_xr4H6n-30" target="cfP5T28f7ZFQE_xr4H6n-31">
          <mxGeometry relative="1" as="geometry" />
        </mxCell>
        <mxCell id="cfP5T28f7ZFQE_xr4H6n-28" value="Não" style="edgeLabel;html=1;align=center;verticalAlign=middle;resizable=0;points=[];" vertex="1" connectable="0" parent="cfP5T28f7ZFQE_xr4H6n-27">
          <mxGeometry x="-0.48" y="1" relative="1" as="geometry">
            <mxPoint as="offset" />
          </mxGeometry>
        </mxCell>
        <mxCell id="cfP5T28f7ZFQE_xr4H6n-29" style="edgeStyle=orthogonalEdgeStyle;rounded=0;orthogonalLoop=1;jettySize=auto;html=1;exitX=0;exitY=0.5;exitDx=0;exitDy=0;" edge="1" parent="1" source="cfP5T28f7ZFQE_xr4H6n-30">
          <mxGeometry relative="1" as="geometry">
            <mxPoint x="130" y="730" as="targetPoint" />
          </mxGeometry>
        </mxCell>
        <mxCell id="cfP5T28f7ZFQE_xr4H6n-30" value="Atualizar Fornecedor" style="rhombus;whiteSpace=wrap;html=1;" vertex="1" parent="1">
          <mxGeometry x="170" y="690" width="100" height="80" as="geometry" />
        </mxCell>
        <mxCell id="cfP5T28f7ZFQE_xr4H6n-31" value="Fim" style="ellipse;whiteSpace=wrap;html=1;" vertex="1" parent="1">
          <mxGeometry x="250" y="760" width="120" height="80" as="geometry" />
        </mxCell>
        <mxCell id="cfP5T28f7ZFQE_xr4H6n-32" style="edgeStyle=orthogonalEdgeStyle;rounded=0;orthogonalLoop=1;jettySize=auto;html=1;exitX=0.5;exitY=1;exitDx=0;exitDy=0;entryX=0.5;entryY=1;entryDx=0;entryDy=0;" edge="1" parent="1" source="cfP5T28f7ZFQE_xr4H6n-33" target="cfP5T28f7ZFQE_xr4H6n-31">
          <mxGeometry relative="1" as="geometry" />
        </mxCell>
        <mxCell id="cfP5T28f7ZFQE_xr4H6n-33" value="Atualização Concluida" style="rounded=0;whiteSpace=wrap;html=1;" vertex="1" parent="1">
          <mxGeometry x="25" y="820" width="120" height="60" as="geometry" />
        </mxCell>
        <mxCell id="cfP5T28f7ZFQE_xr4H6n-34" style="edgeStyle=orthogonalEdgeStyle;rounded=0;orthogonalLoop=1;jettySize=auto;html=1;exitX=0.5;exitY=1;exitDx=0;exitDy=0;" edge="1" parent="1" source="cfP5T28f7ZFQE_xr4H6n-36">
          <mxGeometry relative="1" as="geometry">
            <mxPoint x="85" y="820" as="targetPoint" />
          </mxGeometry>
        </mxCell>
        <mxCell id="cfP5T28f7ZFQE_xr4H6n-35" value="Sim" style="edgeLabel;html=1;align=center;verticalAlign=middle;resizable=0;points=[];" vertex="1" connectable="0" parent="cfP5T28f7ZFQE_xr4H6n-34">
          <mxGeometry x="-0.0892" y="-3" relative="1" as="geometry">
            <mxPoint as="offset" />
          </mxGeometry>
        </mxCell>
        <mxCell id="cfP5T28f7ZFQE_xr4H6n-36" value="Dados Validos" style="rhombus;whiteSpace=wrap;html=1;" vertex="1" parent="1">
          <mxGeometry x="40" y="690" width="90" height="80" as="geometry" />
        </mxCell>
      </root>
    </mxGraphModel>
  </diagram>
  <diagram id="8Gi0CcuV3TCrMctb4WXV" name="Página-3">
    <mxGraphModel dx="1434" dy="772" grid="1" gridSize="10" guides="1" tooltips="1" connect="1" arrows="1" fold="1" page="1" pageScale="1" pageWidth="827" pageHeight="1169" math="0" shadow="0">
      <root>
        <mxCell id="0" />
        <mxCell id="1" parent="0" />
        <mxCell id="-OBxYNr41z-snM1bFInR-1" value="" style="edgeStyle=orthogonalEdgeStyle;rounded=0;orthogonalLoop=1;jettySize=auto;html=1;" edge="1" parent="1" source="-OBxYNr41z-snM1bFInR-2" target="-OBxYNr41z-snM1bFInR-4">
          <mxGeometry relative="1" as="geometry" />
        </mxCell>
        <mxCell id="-OBxYNr41z-snM1bFInR-2" value="Inicio" style="ellipse;whiteSpace=wrap;html=1;" vertex="1" parent="1">
          <mxGeometry x="320" y="40" width="120" height="80" as="geometry" />
        </mxCell>
        <mxCell id="-OBxYNr41z-snM1bFInR-3" style="edgeStyle=orthogonalEdgeStyle;rounded=0;orthogonalLoop=1;jettySize=auto;html=1;exitX=0.5;exitY=1;exitDx=0;exitDy=0;" edge="1" parent="1" source="-OBxYNr41z-snM1bFInR-4">
          <mxGeometry relative="1" as="geometry">
            <mxPoint x="380" y="260" as="targetPoint" />
          </mxGeometry>
        </mxCell>
        <mxCell id="-OBxYNr41z-snM1bFInR-4" value="Listar Materia Prima" style="rounded=0;whiteSpace=wrap;html=1;" vertex="1" parent="1">
          <mxGeometry x="320" y="160" width="120" height="60" as="geometry" />
        </mxCell>
        <mxCell id="-OBxYNr41z-snM1bFInR-5" value="Não" style="edgeStyle=orthogonalEdgeStyle;rounded=0;orthogonalLoop=1;jettySize=auto;html=1;" edge="1" parent="1" source="-OBxYNr41z-snM1bFInR-6">
          <mxGeometry relative="1" as="geometry">
            <mxPoint x="380" y="410" as="targetPoint" />
          </mxGeometry>
        </mxCell>
        <mxCell id="-OBxYNr41z-snM1bFInR-6" value="Materia Prima Cadastrada" style="rhombus;whiteSpace=wrap;html=1;" vertex="1" parent="1">
          <mxGeometry x="320" y="270" width="115" height="100" as="geometry" />
        </mxCell>
        <mxCell id="-OBxYNr41z-snM1bFInR-7" style="edgeStyle=orthogonalEdgeStyle;rounded=0;orthogonalLoop=1;jettySize=auto;html=1;" edge="1" parent="1" source="-OBxYNr41z-snM1bFInR-8">
          <mxGeometry relative="1" as="geometry">
            <mxPoint x="385" y="500" as="targetPoint" />
          </mxGeometry>
        </mxCell>
        <mxCell id="-OBxYNr41z-snM1bFInR-8" value="Cadastrar Materia Prima" style="rounded=0;whiteSpace=wrap;html=1;" vertex="1" parent="1">
          <mxGeometry x="325" y="410" width="120" height="60" as="geometry" />
        </mxCell>
        <mxCell id="-OBxYNr41z-snM1bFInR-9" value="Não" style="edgeStyle=orthogonalEdgeStyle;rounded=0;orthogonalLoop=1;jettySize=auto;html=1;" edge="1" parent="1" source="-OBxYNr41z-snM1bFInR-10">
          <mxGeometry relative="1" as="geometry">
            <mxPoint x="500" y="540" as="targetPoint" />
          </mxGeometry>
        </mxCell>
        <mxCell id="-OBxYNr41z-snM1bFInR-10" value="Dados validos" style="rhombus;whiteSpace=wrap;html=1;" vertex="1" parent="1">
          <mxGeometry x="330" y="500" width="120" height="80" as="geometry" />
        </mxCell>
        <mxCell id="-OBxYNr41z-snM1bFInR-11" value="Mostrar Erro" style="rounded=0;whiteSpace=wrap;html=1;" vertex="1" parent="1">
          <mxGeometry x="500" y="510" width="120" height="60" as="geometry" />
        </mxCell>
        <mxCell id="-OBxYNr41z-snM1bFInR-12" style="edgeStyle=orthogonalEdgeStyle;rounded=0;orthogonalLoop=1;jettySize=auto;html=1;exitX=0.5;exitY=0;exitDx=0;exitDy=0;entryX=0.992;entryY=0.15;entryDx=0;entryDy=0;entryPerimeter=0;" edge="1" parent="1" source="-OBxYNr41z-snM1bFInR-11" target="-OBxYNr41z-snM1bFInR-8">
          <mxGeometry relative="1" as="geometry" />
        </mxCell>
        <mxCell id="-OBxYNr41z-snM1bFInR-13" style="edgeStyle=orthogonalEdgeStyle;rounded=0;orthogonalLoop=1;jettySize=auto;html=1;exitX=0.5;exitY=1;exitDx=0;exitDy=0;entryX=0.464;entryY=0.167;entryDx=0;entryDy=0;entryPerimeter=0;" edge="1" parent="1" source="-OBxYNr41z-snM1bFInR-10">
          <mxGeometry relative="1" as="geometry">
            <mxPoint x="389.96000000000004" y="630.02" as="targetPoint" />
          </mxGeometry>
        </mxCell>
        <mxCell id="-OBxYNr41z-snM1bFInR-14" value="Sim" style="edgeLabel;html=1;align=center;verticalAlign=middle;resizable=0;points=[];" vertex="1" connectable="0" parent="-OBxYNr41z-snM1bFInR-13">
          <mxGeometry x="0.2073" relative="1" as="geometry">
            <mxPoint as="offset" />
          </mxGeometry>
        </mxCell>
        <mxCell id="-OBxYNr41z-snM1bFInR-15" style="edgeStyle=orthogonalEdgeStyle;rounded=0;orthogonalLoop=1;jettySize=auto;html=1;exitX=0.5;exitY=1;exitDx=0;exitDy=0;entryX=1;entryY=0.5;entryDx=0;entryDy=0;" edge="1" parent="1" source="-OBxYNr41z-snM1bFInR-16" target="-OBxYNr41z-snM1bFInR-31">
          <mxGeometry relative="1" as="geometry" />
        </mxCell>
        <mxCell id="-OBxYNr41z-snM1bFInR-16" value="Cadastro Concluido" style="rounded=0;whiteSpace=wrap;html=1;" vertex="1" parent="1">
          <mxGeometry x="330" y="630" width="120" height="60" as="geometry" />
        </mxCell>
        <mxCell id="-OBxYNr41z-snM1bFInR-17" style="edgeStyle=orthogonalEdgeStyle;rounded=0;orthogonalLoop=1;jettySize=auto;html=1;" edge="1" parent="1" source="-OBxYNr41z-snM1bFInR-18" target="-OBxYNr41z-snM1bFInR-23">
          <mxGeometry relative="1" as="geometry" />
        </mxCell>
        <mxCell id="-OBxYNr41z-snM1bFInR-18" value="Buscar Materia Prima" style="rounded=0;whiteSpace=wrap;html=1;" vertex="1" parent="1">
          <mxGeometry x="160" y="310" width="120" height="60" as="geometry" />
        </mxCell>
        <mxCell id="-OBxYNr41z-snM1bFInR-19" style="edgeStyle=orthogonalEdgeStyle;rounded=0;orthogonalLoop=1;jettySize=auto;html=1;exitX=0.5;exitY=1;exitDx=0;exitDy=0;entryX=0.5;entryY=0;entryDx=0;entryDy=0;" edge="1" parent="1" source="-OBxYNr41z-snM1bFInR-23" target="-OBxYNr41z-snM1bFInR-26">
          <mxGeometry relative="1" as="geometry" />
        </mxCell>
        <mxCell id="-OBxYNr41z-snM1bFInR-20" style="edgeStyle=orthogonalEdgeStyle;rounded=0;orthogonalLoop=1;jettySize=auto;html=1;entryX=0;entryY=0.5;entryDx=0;entryDy=0;" edge="1" parent="1" source="-OBxYNr41z-snM1bFInR-23" target="-OBxYNr41z-snM1bFInR-4">
          <mxGeometry relative="1" as="geometry" />
        </mxCell>
        <mxCell id="-OBxYNr41z-snM1bFInR-21" style="edgeStyle=orthogonalEdgeStyle;rounded=0;orthogonalLoop=1;jettySize=auto;html=1;exitX=0;exitY=0.5;exitDx=0;exitDy=0;entryX=0;entryY=0.5;entryDx=0;entryDy=0;" edge="1" parent="1" source="-OBxYNr41z-snM1bFInR-23" target="-OBxYNr41z-snM1bFInR-2">
          <mxGeometry relative="1" as="geometry" />
        </mxCell>
        <mxCell id="-OBxYNr41z-snM1bFInR-22" value="Não" style="edgeLabel;html=1;align=center;verticalAlign=middle;resizable=0;points=[];" vertex="1" connectable="0" parent="-OBxYNr41z-snM1bFInR-21">
          <mxGeometry x="-0.2479" y="2" relative="1" as="geometry">
            <mxPoint as="offset" />
          </mxGeometry>
        </mxCell>
        <mxCell id="-OBxYNr41z-snM1bFInR-23" value="Materia Prima encontrada" style="rhombus;whiteSpace=wrap;html=1;" vertex="1" parent="1">
          <mxGeometry x="170" y="430" width="100" height="90" as="geometry" />
        </mxCell>
        <mxCell id="-OBxYNr41z-snM1bFInR-24" style="edgeStyle=orthogonalEdgeStyle;rounded=0;orthogonalLoop=1;jettySize=auto;html=1;" edge="1" parent="1" source="-OBxYNr41z-snM1bFInR-26" target="-OBxYNr41z-snM1bFInR-30">
          <mxGeometry relative="1" as="geometry" />
        </mxCell>
        <mxCell id="-OBxYNr41z-snM1bFInR-25" value="Não" style="edgeLabel;html=1;align=center;verticalAlign=middle;resizable=0;points=[];" vertex="1" connectable="0" parent="-OBxYNr41z-snM1bFInR-24">
          <mxGeometry x="-0.04" y="2" relative="1" as="geometry">
            <mxPoint as="offset" />
          </mxGeometry>
        </mxCell>
        <mxCell id="-OBxYNr41z-snM1bFInR-26" value="Excluir Materia Prima" style="rhombus;whiteSpace=wrap;html=1;" vertex="1" parent="1">
          <mxGeometry x="170" y="550" width="100" height="90" as="geometry" />
        </mxCell>
        <mxCell id="-OBxYNr41z-snM1bFInR-27" style="edgeStyle=orthogonalEdgeStyle;rounded=0;orthogonalLoop=1;jettySize=auto;html=1;exitX=0.5;exitY=1;exitDx=0;exitDy=0;entryX=0;entryY=0.5;entryDx=0;entryDy=0;" edge="1" parent="1" source="-OBxYNr41z-snM1bFInR-30" target="-OBxYNr41z-snM1bFInR-31">
          <mxGeometry relative="1" as="geometry" />
        </mxCell>
        <mxCell id="-OBxYNr41z-snM1bFInR-28" value="Não" style="edgeLabel;html=1;align=center;verticalAlign=middle;resizable=0;points=[];" vertex="1" connectable="0" parent="-OBxYNr41z-snM1bFInR-27">
          <mxGeometry x="-0.48" y="1" relative="1" as="geometry">
            <mxPoint as="offset" />
          </mxGeometry>
        </mxCell>
        <mxCell id="-OBxYNr41z-snM1bFInR-29" style="edgeStyle=orthogonalEdgeStyle;rounded=0;orthogonalLoop=1;jettySize=auto;html=1;exitX=0;exitY=0.5;exitDx=0;exitDy=0;" edge="1" parent="1" source="-OBxYNr41z-snM1bFInR-30">
          <mxGeometry relative="1" as="geometry">
            <mxPoint x="130" y="730" as="targetPoint" />
          </mxGeometry>
        </mxCell>
        <mxCell id="-OBxYNr41z-snM1bFInR-30" value="Atualizar materia Prima" style="rhombus;whiteSpace=wrap;html=1;" vertex="1" parent="1">
          <mxGeometry x="170" y="690" width="100" height="80" as="geometry" />
        </mxCell>
        <mxCell id="-OBxYNr41z-snM1bFInR-31" value="Fim" style="ellipse;whiteSpace=wrap;html=1;" vertex="1" parent="1">
          <mxGeometry x="250" y="760" width="120" height="80" as="geometry" />
        </mxCell>
        <mxCell id="-OBxYNr41z-snM1bFInR-32" style="edgeStyle=orthogonalEdgeStyle;rounded=0;orthogonalLoop=1;jettySize=auto;html=1;exitX=0.5;exitY=1;exitDx=0;exitDy=0;entryX=0.5;entryY=1;entryDx=0;entryDy=0;" edge="1" parent="1" source="-OBxYNr41z-snM1bFInR-33" target="-OBxYNr41z-snM1bFInR-31">
          <mxGeometry relative="1" as="geometry" />
        </mxCell>
        <mxCell id="-OBxYNr41z-snM1bFInR-33" value="Atualização Concluida" style="rounded=0;whiteSpace=wrap;html=1;" vertex="1" parent="1">
          <mxGeometry x="25" y="820" width="120" height="60" as="geometry" />
        </mxCell>
        <mxCell id="-OBxYNr41z-snM1bFInR-34" style="edgeStyle=orthogonalEdgeStyle;rounded=0;orthogonalLoop=1;jettySize=auto;html=1;exitX=0.5;exitY=1;exitDx=0;exitDy=0;" edge="1" parent="1" source="-OBxYNr41z-snM1bFInR-36">
          <mxGeometry relative="1" as="geometry">
            <mxPoint x="85" y="820" as="targetPoint" />
          </mxGeometry>
        </mxCell>
        <mxCell id="-OBxYNr41z-snM1bFInR-35" value="Sim" style="edgeLabel;html=1;align=center;verticalAlign=middle;resizable=0;points=[];" vertex="1" connectable="0" parent="-OBxYNr41z-snM1bFInR-34">
          <mxGeometry x="-0.0892" y="-3" relative="1" as="geometry">
            <mxPoint as="offset" />
          </mxGeometry>
        </mxCell>
        <mxCell id="-OBxYNr41z-snM1bFInR-36" value="Dados Validos" style="rhombus;whiteSpace=wrap;html=1;" vertex="1" parent="1">
          <mxGeometry x="40" y="690" width="90" height="80" as="geometry" />
        </mxCell>
      </root>
    </mxGraphModel>
  </diagram>
  <diagram id="1siQBhdoCEANpvvRpUQG" name="Página-4">
    <mxGraphModel dx="1434" dy="772" grid="1" gridSize="10" guides="1" tooltips="1" connect="1" arrows="1" fold="1" page="1" pageScale="1" pageWidth="827" pageHeight="1169" math="0" shadow="0">
      <root>
        <mxCell id="0" />
        <mxCell id="1" parent="0" />
        <mxCell id="7U2ki9GpmUCKqqcp1Dp3-1" value="" style="edgeStyle=orthogonalEdgeStyle;rounded=0;orthogonalLoop=1;jettySize=auto;html=1;" edge="1" parent="1" source="7U2ki9GpmUCKqqcp1Dp3-2" target="7U2ki9GpmUCKqqcp1Dp3-4">
          <mxGeometry relative="1" as="geometry" />
        </mxCell>
        <mxCell id="7U2ki9GpmUCKqqcp1Dp3-2" value="Inicio" style="ellipse;whiteSpace=wrap;html=1;" vertex="1" parent="1">
          <mxGeometry x="320" y="40" width="120" height="80" as="geometry" />
        </mxCell>
        <mxCell id="7U2ki9GpmUCKqqcp1Dp3-3" style="edgeStyle=orthogonalEdgeStyle;rounded=0;orthogonalLoop=1;jettySize=auto;html=1;exitX=0.5;exitY=1;exitDx=0;exitDy=0;" edge="1" parent="1" source="7U2ki9GpmUCKqqcp1Dp3-4">
          <mxGeometry relative="1" as="geometry">
            <mxPoint x="380" y="260" as="targetPoint" />
          </mxGeometry>
        </mxCell>
        <mxCell id="7U2ki9GpmUCKqqcp1Dp3-4" value="Listar Produto" style="rounded=0;whiteSpace=wrap;html=1;" vertex="1" parent="1">
          <mxGeometry x="320" y="160" width="120" height="60" as="geometry" />
        </mxCell>
        <mxCell id="7U2ki9GpmUCKqqcp1Dp3-5" value="Não" style="edgeStyle=orthogonalEdgeStyle;rounded=0;orthogonalLoop=1;jettySize=auto;html=1;" edge="1" parent="1" source="7U2ki9GpmUCKqqcp1Dp3-6">
          <mxGeometry relative="1" as="geometry">
            <mxPoint x="380" y="410" as="targetPoint" />
          </mxGeometry>
        </mxCell>
        <mxCell id="7U2ki9GpmUCKqqcp1Dp3-6" value="Produto Cadastrado" style="rhombus;whiteSpace=wrap;html=1;" vertex="1" parent="1">
          <mxGeometry x="320" y="270" width="115" height="100" as="geometry" />
        </mxCell>
        <mxCell id="7U2ki9GpmUCKqqcp1Dp3-7" style="edgeStyle=orthogonalEdgeStyle;rounded=0;orthogonalLoop=1;jettySize=auto;html=1;" edge="1" parent="1" source="7U2ki9GpmUCKqqcp1Dp3-8">
          <mxGeometry relative="1" as="geometry">
            <mxPoint x="385" y="500" as="targetPoint" />
          </mxGeometry>
        </mxCell>
        <mxCell id="7U2ki9GpmUCKqqcp1Dp3-8" value="Cadastrar Produto" style="rounded=0;whiteSpace=wrap;html=1;" vertex="1" parent="1">
          <mxGeometry x="325" y="410" width="120" height="60" as="geometry" />
        </mxCell>
        <mxCell id="7U2ki9GpmUCKqqcp1Dp3-9" value="Não" style="edgeStyle=orthogonalEdgeStyle;rounded=0;orthogonalLoop=1;jettySize=auto;html=1;" edge="1" parent="1" source="7U2ki9GpmUCKqqcp1Dp3-10">
          <mxGeometry relative="1" as="geometry">
            <mxPoint x="500" y="540" as="targetPoint" />
          </mxGeometry>
        </mxCell>
        <mxCell id="7U2ki9GpmUCKqqcp1Dp3-10" value="Dados validos" style="rhombus;whiteSpace=wrap;html=1;" vertex="1" parent="1">
          <mxGeometry x="330" y="500" width="120" height="80" as="geometry" />
        </mxCell>
        <mxCell id="7U2ki9GpmUCKqqcp1Dp3-11" value="Mostrar Erro" style="rounded=0;whiteSpace=wrap;html=1;" vertex="1" parent="1">
          <mxGeometry x="500" y="510" width="120" height="60" as="geometry" />
        </mxCell>
        <mxCell id="7U2ki9GpmUCKqqcp1Dp3-12" style="edgeStyle=orthogonalEdgeStyle;rounded=0;orthogonalLoop=1;jettySize=auto;html=1;exitX=0.5;exitY=0;exitDx=0;exitDy=0;entryX=0.992;entryY=0.15;entryDx=0;entryDy=0;entryPerimeter=0;" edge="1" parent="1" source="7U2ki9GpmUCKqqcp1Dp3-11" target="7U2ki9GpmUCKqqcp1Dp3-8">
          <mxGeometry relative="1" as="geometry" />
        </mxCell>
        <mxCell id="7U2ki9GpmUCKqqcp1Dp3-13" style="edgeStyle=orthogonalEdgeStyle;rounded=0;orthogonalLoop=1;jettySize=auto;html=1;exitX=0.5;exitY=1;exitDx=0;exitDy=0;entryX=0.464;entryY=0.167;entryDx=0;entryDy=0;entryPerimeter=0;" edge="1" parent="1" source="7U2ki9GpmUCKqqcp1Dp3-10">
          <mxGeometry relative="1" as="geometry">
            <mxPoint x="389.96000000000004" y="630.02" as="targetPoint" />
          </mxGeometry>
        </mxCell>
        <mxCell id="7U2ki9GpmUCKqqcp1Dp3-14" value="Sim" style="edgeLabel;html=1;align=center;verticalAlign=middle;resizable=0;points=[];" vertex="1" connectable="0" parent="7U2ki9GpmUCKqqcp1Dp3-13">
          <mxGeometry x="0.2073" relative="1" as="geometry">
            <mxPoint as="offset" />
          </mxGeometry>
        </mxCell>
        <mxCell id="7U2ki9GpmUCKqqcp1Dp3-15" style="edgeStyle=orthogonalEdgeStyle;rounded=0;orthogonalLoop=1;jettySize=auto;html=1;exitX=0.5;exitY=1;exitDx=0;exitDy=0;entryX=1;entryY=0.5;entryDx=0;entryDy=0;" edge="1" parent="1" source="7U2ki9GpmUCKqqcp1Dp3-16" target="7U2ki9GpmUCKqqcp1Dp3-31">
          <mxGeometry relative="1" as="geometry" />
        </mxCell>
        <mxCell id="7U2ki9GpmUCKqqcp1Dp3-16" value="Cadastro Concluido" style="rounded=0;whiteSpace=wrap;html=1;" vertex="1" parent="1">
          <mxGeometry x="330" y="630" width="120" height="60" as="geometry" />
        </mxCell>
        <mxCell id="7U2ki9GpmUCKqqcp1Dp3-17" style="edgeStyle=orthogonalEdgeStyle;rounded=0;orthogonalLoop=1;jettySize=auto;html=1;" edge="1" parent="1" source="7U2ki9GpmUCKqqcp1Dp3-18" target="7U2ki9GpmUCKqqcp1Dp3-23">
          <mxGeometry relative="1" as="geometry" />
        </mxCell>
        <mxCell id="7U2ki9GpmUCKqqcp1Dp3-18" value="Buscar Produto" style="rounded=0;whiteSpace=wrap;html=1;" vertex="1" parent="1">
          <mxGeometry x="160" y="310" width="120" height="60" as="geometry" />
        </mxCell>
        <mxCell id="7U2ki9GpmUCKqqcp1Dp3-19" style="edgeStyle=orthogonalEdgeStyle;rounded=0;orthogonalLoop=1;jettySize=auto;html=1;exitX=0.5;exitY=1;exitDx=0;exitDy=0;entryX=0.5;entryY=0;entryDx=0;entryDy=0;" edge="1" parent="1" source="7U2ki9GpmUCKqqcp1Dp3-23" target="7U2ki9GpmUCKqqcp1Dp3-26">
          <mxGeometry relative="1" as="geometry" />
        </mxCell>
        <mxCell id="7U2ki9GpmUCKqqcp1Dp3-20" style="edgeStyle=orthogonalEdgeStyle;rounded=0;orthogonalLoop=1;jettySize=auto;html=1;entryX=0;entryY=0.5;entryDx=0;entryDy=0;" edge="1" parent="1" source="7U2ki9GpmUCKqqcp1Dp3-23" target="7U2ki9GpmUCKqqcp1Dp3-4">
          <mxGeometry relative="1" as="geometry" />
        </mxCell>
        <mxCell id="7U2ki9GpmUCKqqcp1Dp3-21" style="edgeStyle=orthogonalEdgeStyle;rounded=0;orthogonalLoop=1;jettySize=auto;html=1;exitX=0;exitY=0.5;exitDx=0;exitDy=0;entryX=0;entryY=0.5;entryDx=0;entryDy=0;" edge="1" parent="1" source="7U2ki9GpmUCKqqcp1Dp3-23" target="7U2ki9GpmUCKqqcp1Dp3-2">
          <mxGeometry relative="1" as="geometry" />
        </mxCell>
        <mxCell id="7U2ki9GpmUCKqqcp1Dp3-22" value="Não" style="edgeLabel;html=1;align=center;verticalAlign=middle;resizable=0;points=[];" vertex="1" connectable="0" parent="7U2ki9GpmUCKqqcp1Dp3-21">
          <mxGeometry x="-0.2479" y="2" relative="1" as="geometry">
            <mxPoint as="offset" />
          </mxGeometry>
        </mxCell>
        <mxCell id="7U2ki9GpmUCKqqcp1Dp3-23" value="Produto Encontrado" style="rhombus;whiteSpace=wrap;html=1;" vertex="1" parent="1">
          <mxGeometry x="170" y="430" width="100" height="90" as="geometry" />
        </mxCell>
        <mxCell id="7U2ki9GpmUCKqqcp1Dp3-24" style="edgeStyle=orthogonalEdgeStyle;rounded=0;orthogonalLoop=1;jettySize=auto;html=1;" edge="1" parent="1" source="7U2ki9GpmUCKqqcp1Dp3-26" target="7U2ki9GpmUCKqqcp1Dp3-30">
          <mxGeometry relative="1" as="geometry" />
        </mxCell>
        <mxCell id="7U2ki9GpmUCKqqcp1Dp3-25" value="Não" style="edgeLabel;html=1;align=center;verticalAlign=middle;resizable=0;points=[];" vertex="1" connectable="0" parent="7U2ki9GpmUCKqqcp1Dp3-24">
          <mxGeometry x="-0.04" y="2" relative="1" as="geometry">
            <mxPoint as="offset" />
          </mxGeometry>
        </mxCell>
        <mxCell id="7U2ki9GpmUCKqqcp1Dp3-26" value="Excluir Produto" style="rhombus;whiteSpace=wrap;html=1;" vertex="1" parent="1">
          <mxGeometry x="170" y="550" width="100" height="90" as="geometry" />
        </mxCell>
        <mxCell id="7U2ki9GpmUCKqqcp1Dp3-27" style="edgeStyle=orthogonalEdgeStyle;rounded=0;orthogonalLoop=1;jettySize=auto;html=1;exitX=0.5;exitY=1;exitDx=0;exitDy=0;entryX=0;entryY=0.5;entryDx=0;entryDy=0;" edge="1" parent="1" source="7U2ki9GpmUCKqqcp1Dp3-30" target="7U2ki9GpmUCKqqcp1Dp3-31">
          <mxGeometry relative="1" as="geometry" />
        </mxCell>
        <mxCell id="7U2ki9GpmUCKqqcp1Dp3-28" value="Não" style="edgeLabel;html=1;align=center;verticalAlign=middle;resizable=0;points=[];" vertex="1" connectable="0" parent="7U2ki9GpmUCKqqcp1Dp3-27">
          <mxGeometry x="-0.48" y="1" relative="1" as="geometry">
            <mxPoint as="offset" />
          </mxGeometry>
        </mxCell>
        <mxCell id="7U2ki9GpmUCKqqcp1Dp3-29" style="edgeStyle=orthogonalEdgeStyle;rounded=0;orthogonalLoop=1;jettySize=auto;html=1;exitX=0;exitY=0.5;exitDx=0;exitDy=0;" edge="1" parent="1" source="7U2ki9GpmUCKqqcp1Dp3-30">
          <mxGeometry relative="1" as="geometry">
            <mxPoint x="130" y="730" as="targetPoint" />
          </mxGeometry>
        </mxCell>
        <mxCell id="7U2ki9GpmUCKqqcp1Dp3-30" value="Atualizar Produto" style="rhombus;whiteSpace=wrap;html=1;" vertex="1" parent="1">
          <mxGeometry x="170" y="690" width="100" height="80" as="geometry" />
        </mxCell>
        <mxCell id="7U2ki9GpmUCKqqcp1Dp3-31" value="Fim" style="ellipse;whiteSpace=wrap;html=1;" vertex="1" parent="1">
          <mxGeometry x="250" y="760" width="120" height="80" as="geometry" />
        </mxCell>
        <mxCell id="7U2ki9GpmUCKqqcp1Dp3-32" style="edgeStyle=orthogonalEdgeStyle;rounded=0;orthogonalLoop=1;jettySize=auto;html=1;exitX=0.5;exitY=1;exitDx=0;exitDy=0;entryX=0.5;entryY=1;entryDx=0;entryDy=0;" edge="1" parent="1" source="7U2ki9GpmUCKqqcp1Dp3-33" target="7U2ki9GpmUCKqqcp1Dp3-31">
          <mxGeometry relative="1" as="geometry" />
        </mxCell>
        <mxCell id="7U2ki9GpmUCKqqcp1Dp3-33" value="Atualização Concluida" style="rounded=0;whiteSpace=wrap;html=1;" vertex="1" parent="1">
          <mxGeometry x="25" y="820" width="120" height="60" as="geometry" />
        </mxCell>
        <mxCell id="7U2ki9GpmUCKqqcp1Dp3-34" style="edgeStyle=orthogonalEdgeStyle;rounded=0;orthogonalLoop=1;jettySize=auto;html=1;exitX=0.5;exitY=1;exitDx=0;exitDy=0;" edge="1" parent="1" source="7U2ki9GpmUCKqqcp1Dp3-36">
          <mxGeometry relative="1" as="geometry">
            <mxPoint x="85" y="820" as="targetPoint" />
          </mxGeometry>
        </mxCell>
        <mxCell id="7U2ki9GpmUCKqqcp1Dp3-35" value="Sim" style="edgeLabel;html=1;align=center;verticalAlign=middle;resizable=0;points=[];" vertex="1" connectable="0" parent="7U2ki9GpmUCKqqcp1Dp3-34">
          <mxGeometry x="-0.0892" y="-3" relative="1" as="geometry">
            <mxPoint as="offset" />
          </mxGeometry>
        </mxCell>
        <mxCell id="7U2ki9GpmUCKqqcp1Dp3-36" value="Dados Validos" style="rhombus;whiteSpace=wrap;html=1;" vertex="1" parent="1">
          <mxGeometry x="40" y="690" width="90" height="80" as="geometry" />
        </mxCell>
      </root>
    </mxGraphModel>
  </diagram>
</mxfile>
